#!OML:ASF E:/inclinewalkrobotboard/Project1/Captureday1/Session1/subject1.ASF
:FULLY-SPECIFIED
:DEGREES
213
root 0 0 0 1.3609471618661444 -3.5146348424876943 1.7916314124811872
lowerback 11.913218849761945 0.8935714327940318 -0.07664620865464267
upperback -4.365109954049611 1.1234022017193774 -0.5871920020395647
thorax -11.448119100491148 0.5162306901922219 -0.8354647726416993
lowerneck -6.696217191597298 1.6171271137970322 4.403357231861759
upperneck 18.596148567910657 3.093455494975718 -7.882508384195198
head 6.924638547503415 1.1388716458590866 -3.035423589612175
rclavicle 6.9810983470814715E-16 -1.2016712122562466E-15
rhumerus 19.111074350858498 13.72205590811775 -48.50933839130877
rradius 71.5675137707055
rwrist 26.74432923665394
rhand -35.048877655648695 -56.820411862012605
rfingers 7.125020000000025
rthumb -8.178721326356218 -86.73461197281293
lclavicle 6.405077066249263E-16 -1.8011556698453023E-15
lhumerus 20.668431602201803 -12.082680991243368 45.08421116538936
lradius 69.64733627406082
lwrist -22.635892141830503
lhand -44.63666179147515 -70.15942849258462
lfingers 7.1250200000000214
lthumb -17.45898791739539 -40.878138125727716
rfemur -24.639314551382547 -2.091454014277947 17.17765917480946
rtibia 53.80065196946471
rfoot -29.052786515975725 -17.040157982717616
rtoes -18.298948202896515
lfemur -26.361291763835258 2.456732785638275 -18.025313362810625
ltibia 54.189701549520436
lfoot -31.085210905118423 -3.5167918814416517
ltoes -19.74528685527781
214
root 0 0 0 1.3607511745073717 -3.514825755003618 1.7916675466173788
lowerback 11.913239077837199 0.8935505721409442 -0.0766285750834913
upperback -4.365011720135241 1.1233818686625419 -0.5871619639872212
thorax -11.448020338231624 0.5162202674169444 -0.8354357883769112
lowerneck -6.69562595992891 1.6170708055541034 4.40349499580256
upperneck 18.59586891877129 3.0934077433608413 -7.882873012581723
head 6.92445003701681 1.1388475222100194 -3.035567205085906
rclavicle 6.851272508429324E-16 -1.1952624183376878E-15
rhumerus 19.11093456772963 13.72126964661932 -48.50697190375254
rradius 71.56707865205274
rwrist 26.746108174872187
rhand -35.046997174420284 -56.818964081939214
rfingers 7.125020000000025
rthumb -8.176958727669506 -86.73322186542192
lclavicle 6.09637695398897E-16 -1.7898539595044847E-15
lhumerus 20.669219938670626 -12.083116844137272 45.084914361572174
lradius 69.64779614105899
lwrist -22.635763900592146
lhand -44.63739044384539 -70.16009393836613
lfingers 7.1250200000000214
lthumb -17.459638781054466 -40.878146314914076
rfemur -24.639620111632784 -2.0911931754390563 17.176988785557988
rtibia 53.799569555729825
rfoot -29.051772002568995 -17.039289880197472
rtoes -18.298483303610126
lfemur -26.35920859169112 2.4573377818389623 -18.024904420204596
ltibia 54.18889934114469
lfoot -31.08408401088996 -3.515101712245992
ltoes -19.74922590384884
215
root 0 0 0 1.3606530485902026 -3.5149162544999886 1.7916750616070969
lowerback 11.913229472741996 0.8935385152920688 -0.07660960209900175
upperback -4.364967125379803 1.1233712518309547 -0.5871461580894237
thorax -11.447964021404811 0.5162141067647259 -0.8354259727821354
lowerneck -6.695286891745539 1.6170252323948677 4.403559342594533
upperneck 18.595677207344835 3.09335897616687 -7.883044152517325
head 6.92433101356518 1.1388255191583556 -3.035637246674023
rclavicle 6.896817696200387E-16 -1.1960764775285364E-15
rhumerus 19.111119448420972 13.72149191520717 -48.507056965589435
rradius 71.5671570631825
rwrist 26.7459925718122
rhand -35.04677404976319 -56.81862144664391
rfingers 7.125020000000025
rthumb -8.176739984181687 -86.7328160254485
lclavicle 6.135532579896044E-16 -1.7911611118343492E-15
lhumerus 20.669294848249965 -12.08341573165509 45.08459528970226
lradius 69.64790093776159
lwrist -22.635805581403297
lhand -44.63718806163691 -70.15907506391886
lfingers 7.1250200000000214
lthumb -17.45944989913226 -40.877232749357425
rfemur -24.639652717947826 -2.0911681002565743 17.176981782921665
rtibia 53.79943638760875
rfoot -29.0518012431193 -17.039275262303395
rtoes -18.29847464153728
lfemur -26.359035935895356 2.4574124072840657 -18.02488287611075
ltibia 54.188741181854695
lfoot -31.084000423729076 -3.515016577543481
ltoes -19.749833002888973
216
root 0 0 0 1.360549744180334 -3.5150174172230884 1.7916784457029964
lowerback 11.913210974513518 0.8935261268882089 -0.07658618493064498
upperback -4.3649279995354355 1.1233605693496738 -0.5871298351574322
thorax -11.44790848582637 0.5162077071670523 -0.8354182993693415
lowerneck -6.694927215032423 1.6169815269654002 4.403626263225955
upperneck 18.595473879791932 3.093313645850804 -7.883217172719472
head 6.924204393119258 1.13880538896609 -3.0357078181417316
rclavicle 6.913947298014724E-16 -1.1959925864706308E-15
rhumerus 19.111472766244123 13.721864949278103 -48.506970444802306
rradius 71.56737681183185
rwrist 26.745876318851128
rhand -35.04635329004876 -56.81807660915965
rfingers 7.125020000000025
rthumb -8.176327657274342 -86.73227798162533
lclavicle 6.152908205764615E-16 -1.7912038237622785E-15
lhumerus 20.669362621521724 -12.083659419909552 45.084356374181496
lradius 69.64802698610231
lwrist -22.635842263854737
lhand -44.637002237286815 -70.15806670959742
lfingers 7.1250200000000214
lthumb -17.4592710774048 -40.876243494771906
rfemur -24.639597161406357 -2.0911474426592798 17.17700329584759
rtibia 53.799446464899056
rfoot -29.051825072331454 -17.03923108926505
rtoes -18.298542795687347
lfemur -26.358929794891797 2.4574727440206265 -18.024870051392067
ltibia 54.188795460070416
lfoot -31.083980361515763 -3.514974309491659
ltoes -19.75020691390877
217
root 0 0 0 1.3609798166432054 -3.5146023876073955 1.791630137024085
lowerback 11.913223984614298 0.8935754507960262 -0.07665415579396623
upperback -4.365123879367478 1.1234055674441108 -0.5871974877289949
thorax -11.44813805328973 0.5162327379202803 -0.8354672977498747
lowerneck -6.696336050798802 1.6171428658833773 4.403335200816416
upperneck 18.59621850441026 3.09347235870354 -7.882450376015693
head 6.924681264254197 1.1388791560311387 -3.0353997956220997
rclavicle 6.979014501411013E-16 -1.2016962085565369E-15
rhumerus 19.111008591355933 13.721989619212714 -48.509365725845626
rradius 71.56747578614005
rwrist 26.744345806876467
rhand -35.04896624894413 -56.820525749267176
rfingers 7.125020000000025
rthumb -8.178807914931115 -86.73472250701262
lclavicle 6.403083451334469E-16 -1.8011657365345258E-15
lhumerus 20.668412334299163 -12.082628436529983 45.08426538570675
lradius 69.64730871136479
lwrist -22.635881737958826
lhand -44.63669689229871 -70.15963437350783
lfingers 7.1250200000000214
lthumb -17.459021736875556 -40.878342711567385
rfemur -24.639316203113466 -2.091454097861862 17.177656769553355
rtibia 53.800648759890535
rfoot -29.052772982671037 -17.040157665201573
rtoes -18.298942623924823
lfemur -26.361319013229078 2.4567180754241655 -18.025316368246784
ltibia 54.18969937600432
lfoot -31.085214398051143 -3.516809784606568
ltoes -19.745187429487643
218
root 0 0 0 1.3607733207361408 -3.5148037877413576 1.7916666898152647
lowerback 11.91324253461191 0.8935532996938477 -0.07663398869623056
upperback -4.365021212000603 1.1233841494484746 -0.5871656935508278
thorax -11.448033231509111 0.5162216561424295 -0.8354374989323563
lowerneck -6.695706690257969 1.6170815539624734 4.4034800422037135
upperneck 18.59591649536022 3.093419271956778 -7.882833610910836
head 6.9244790737403905 1.1388526563987589 -3.0355510368993346
rclavicle 6.849745133487178E-16 -1.1952686755567136E-15
rhumerus 19.110889960673077 13.721224577310016 -48.506989661733584
rradius 71.56705258463194
rwrist 26.746119626697507
rhand -35.04705654930711 -56.819040164631076
rfingers 7.125020000000025
rthumb -8.177016794312008 -86.73329584214011
lclavicle 6.09489073289163E-16 -1.789846127660315E-15
lhumerus 20.669206973742575 -12.083081090135458 45.08495131186851
lradius 69.64777756853856
lwrist -22.6357570137606
lhand -44.63741432766067 -70.16023346449435
lfingers 7.1250200000000214
lthumb -17.459661770031126 -40.87828448503981
rfemur -24.639620982665626 -2.0911930154639418 17.17698731645922
rtibia 53.79956694238557
rfoot -29.051762966150005 -17.03928973852438
rtoes -18.29847937627069
lfemur -26.359226731523517 2.457328099810213 -18.024906293727458
ltibia 54.188898020629914
lfoot -31.084086566138616 -3.5151134481086044
ltoes -19.74915994546908
219
root 0 0 0 1.3606681656549298 -3.514901270257924 1.791674475470884
lowerback 11.9132318226568 0.8935403767171927 -0.07661329846823214
upperback -4.364973614615686 1.1233728077533551 -0.5871487047796874
thorax -11.447972827858486 0.5162150541909459 -0.8354271410635549
lowerneck -6.69534200607777 1.6170325777789918 4.403549133253534
upperneck 18.59570969569214 3.09336685789149 -7.883017246713937
head 6.924350839026149 1.138829029463937 -3.035626205340951
rclavicle 6.895865300841467E-16 -1.1960834538475088E-15
rhumerus 19.11108953467641 13.721461800692214 -48.50706936932606
rradius 71.56713964657446
rwrist 26.746000020070262
rhand -35.04681419969096 -56.81867282099684
rfingers 7.125020000000025
rthumb -8.176779231570945 -86.73286589210656
lclavicle 6.134612888627894E-16 -1.7911598266017033E-15
lhumerus 20.66928594693038 -12.0833917112546 45.08462002738853
lradius 69.64788831373218
lwrist -22.63580092139322
lhand -44.637203950868624 -70.1591685144714
lfingers 7.1250200000000214
lthumb -17.459465201887234 -40.877325504717334
rfemur -24.639653324425325 -2.09116798452927 17.176980791573293
rtibia 53.799434586159684
rfoot -29.05179514681686 -17.03927517809599
rtoes -18.298471947398284
lfemur -26.359048234834045 2.457405860206454 -18.024884148920773
ltibia 54.18874024143129
lfoot -31.084002083601714 -3.5150245378210663
ltoes -19.74978830565183
220
root 0 0 0 1.3605600411550667 -3.515007219695585 1.7916780453974774
lowerback 11.913212568504232 0.8935273949421779 -0.07658870310737223
upperback -4.364932427423589 1.123361628982767 -0.587131570577374
thorax -11.447914489065699 0.5162083523941265 -0.835419096026022
lowerneck -6.694964762055152 1.6169865377499832 4.403619308369464
upperneck 18.59549601847779 3.093319025260208 -7.883198839346523
head 6.924217900905755 1.138807784969233 -3.035700293953023
rclavicle 6.9132920614266155E-16 -1.195996473417855E-15
rhumerus 19.11145244810512 13.721844483052827 -48.50697879538519
rradius 71.56736496924529
rwrist 26.745881405063084
rhand -35.046380507595394 -56.81811143263198
rfingers 7.125020000000025
rthumb -8.176354265956217 -86.73231179344116
lclavicle 6.1522757444573645E-16 -1.791201794373028E-15
lhumerus 20.66935660901373 -12.083643103417092 45.08437317409688
lradius 69.6480184318581
lwrist -22.635839124182212
lhand -44.637013044972576 -70.15813019515413
lfingers 7.1250200000000214
lthumb -17.45928148332768 -40.876306470817696
rfemur -24.639597554071525 -2.0911473483440557 17.177002631917095
rtibia 53.79944519636265
rfoot -29.05182094968115 -17.039231043588092
rtoes -18.298540962374773
lfemur -26.358938130867696 2.4574683119076957 -18.024870908164132
ltibia 54.188794817306366
lfoot -31.083981500982887 -3.5149796909591027
ltoes -19.750176654840875
